<svg xmlns:inkscape="http://www.inkscape.org/namespaces/inkscape" xmlns:sodipodi="http://sodipodi.sourceforge.net/DTD/sodipodi-0.dtd" xmlns="http://www.w3.org/2000/svg" xmlns:svg="http://www.w3.org/2000/svg" version="1.1" id="svg1" width="316.22776601683796" height="316.22776601683796" viewBox="0 0 377.94666 377.94666" sodipodi:docname="ESA_Patch_2026.eps">
  <g id="g1" inkscape:groupmode="layer" inkscape:label="1">
    <g id="group-R5">
      <path id="path2" d="M 2834.65,1417.33 C 2834.65,634.559 2200.09,0 1417.32,0 634.559,0 0,634.559 0,1417.33 c 0,782.76 634.559,1417.32 1417.32,1417.32 784.18,0 1417.33,-633.15 1417.33,-1417.32" style="fill:#042a3d;fill-opacity:1;fill-rule:nonzero;stroke:none" transform="matrix(0.13333333,0,0,-0.13333333,0,377.94667)"/>
      <path id="path3" d="m 2581.58,749.91 c 16.56,27.5 30.47,56.442 45.21,84.93 l -146.38,70.621 c -13.04,-24.992 -25.13,-50.481 -39.75,-74.602 l 140.92,-80.949" style="fill:#00a650;fill-opacity:1;fill-rule:nonzero;stroke:none" transform="matrix(0.13333333,0,0,-0.13333333,0,377.94667)"/>
      <path id="path4" d="m 2492.02,613.262 c 31.97,44.09 62.96,89.027 89.55,136.636 l -140.92,80.942 c -23.3,-41.871 -50.66,-81.301 -78.69,-120.121 l 130.06,-97.457" style="fill:#ed1c24;fill-opacity:1;fill-rule:nonzero;stroke:none" transform="matrix(0.13333333,0,0,-0.13333333,0,377.94667)"/>
      <path id="path5" d="m 2548.63,768.859 c -6.14,-10.668 -15.86,-17.89 -26.5,-20.75 -10.93,-2.718 -22.74,-1.109 -32.82,5.161 -10.12,6.289 -16.65,15.98 -19.26,26.441 -2.87,10.648 -1.85,22.109 3.87,32.059 5.71,9.96 15.14,16.582 25.74,19.492 10.31,3.039 22.01,2.258 32.52,-3.301 10.52,-5.563 17.82,-14.93 21.02,-25.762 2.93,-10.648 1.55,-22.66 -4.57,-33.34 z m -7.47,4.289 c 9.8,17 4.09,38.102 -12.9,47.153 -16.57,8.808 -37.69,3.109 -46.87,-12.821 -9.19,-15.929 -3.39,-37.101 12.56,-46.96 16.38,-10.122 37.4,-4.36 47.21,12.628" style="fill:#fddd04;fill-opacity:1;fill-rule:nonzero;stroke:none" transform="matrix(0.13333333,0,0,-0.13333333,0,377.94667)"/>
      <path id="path6" d="m 2499.11,769.16 c -11.53,6.981 -15.56,21.891 -8.99,33.309 6.56,11.422 21.48,15.441 33.32,9 11.83,-6.438 15.87,-21.36 8.99,-33.309 -6.87,-11.949 -21.79,-15.98 -33.32,-9" style="fill:#fddd04;fill-opacity:1;fill-rule:nonzero;stroke:none" transform="matrix(0.13333333,0,0,-0.13333333,0,377.94667)"/>
      <path id="path7" d="m 1455.44,184.609 1.64,-54.257 c 83,2.527 165.8,12.988 246.81,31.398 l -12.03,52.93 c -77.58,-17.629 -156.87,-27.649 -236.42,-30.071" style="fill:#1c63b7;fill-opacity:1;fill-rule:nonzero;stroke:none" transform="matrix(0.13333333,0,0,-0.13333333,0,377.94667)"/>
      <path id="path8" d="m 1457.08,130.41 1.65,-54.1991 c 86.44,2.6289 172.73,13.5196 257.17,32.7191 l -12.02,52.871 c -81.01,-18.41 -163.8,-28.871 -246.8,-31.391" style="fill:#ffffff;fill-opacity:1;fill-rule:nonzero;stroke:none" transform="matrix(0.13333333,0,0,-0.13333333,0,377.94667)"/>
      <path id="path9" d="m 1453.79,238.648 1.65,-54.16 c 79.56,2.422 158.86,12.442 236.45,30.071 l -12.01,52.839 c -74.16,-16.847 -149.97,-26.429 -226.09,-28.75" style="fill:#ed1c24;fill-opacity:1;fill-rule:nonzero;stroke:none" transform="matrix(0.13333333,0,0,-0.13333333,0,377.94667)"/>
      <path id="path10" d="m 1674.24,116.121 c 12.27,2.008 19.2,8.359 19.2,8.359 0,0 -3.89,18.27 -7.43,34.942 -1.78,8.328 -7.45,12.398 -12.63,14.398 -5.22,2.2 -9.99,2.36 -9.99,2.36 l -0.97,-0.168 c 0,0 -17.6,-7.141 -14.62,-23.922 3.03,-16.762 6.36,-35.149 6.36,-35.149 0,0 8.74,-2.851 20.98,-0.652 l -0.9,-0.168" style="fill:#1c63b7;fill-opacity:1;fill-rule:nonzero;stroke:none" transform="matrix(0.13333333,0,0,-0.13333333,0,377.94667)"/>
      <path id="path11" d="m 1674.27,118.32 c -8.64,-1.468 -15.45,-0.289 -18.12,0.352 l -6.19,33.808 c -1.34,7.411 1.85,12.731 5.37,16.219 1.76,1.742 3.61,3.02 5.03,3.879 1.43,0.852 2.42,1.281 2.48,1.32 l 0.5,0.141 c 0.74,-0.187 17.41,-0.59 20.52,-15.117 l 7.09,-33.633 c -2.22,-1.668 -8.05,-5.469 -16.68,-6.969 z m -12.7,59.668 c 0,0 -4.87,-2.027 -9.23,-6.308 -4.35,-4.27 -8.32,-10.828 -6.7,-19.969 l 6.53,-36.391 1.24,-0.422 c 0.19,-0.046 2.44,-0.769 6.17,-1.226 3.73,-0.453 8.96,-0.641 15.07,0.348 l 0.91,0.152 v 0.008 c 6.07,1.16 10.86,3.179 14.11,5.148 3.28,1.883 5.08,3.434 5.23,3.563 l 0.99,0.871 -7.75,36.148 c -1.95,9.07 -8.1,13.559 -13.79,15.789 -5.71,2.321 -11.06,2.641 -11.38,2.59 l -1.4,-0.301" style="fill:#ffffff;fill-opacity:1;fill-rule:nonzero;stroke:none" transform="matrix(0.13333333,0,0,-0.13333333,0,377.94667)"/>
      <path id="path12" d="m 854.188,2499.91 c -69.786,-36.37 -136.032,-79.53 -197.54,-128.65 l 25.422,-31.83 c 59.461,47.48 123.504,89.2 190.95,124.35 l -18.832,36.13" style="fill:#ed1c24;fill-opacity:1;fill-rule:nonzero;stroke:none" transform="matrix(0.13333333,0,0,-0.13333333,0,377.94667)"/>
      <path id="path13" d="m 816.605,2572 c -74.449,-38.8 -145.101,-84.83 -210.687,-137.2 l 50.73,-63.54 c 61.508,49.12 127.754,92.28 197.54,128.65 L 816.605,2572" style="fill:#fddd04;fill-opacity:1;fill-rule:nonzero;stroke:none" transform="matrix(0.13333333,0,0,-0.13333333,0,377.94667)"/>
      <path id="path14" d="m 797.824,2608.04 c -76.781,-40.02 -149.636,-87.49 -217.265,-141.49 l 25.359,-31.75 c 65.586,52.37 136.238,98.4 210.687,137.2 l -18.781,36.04" style="fill:#ed1c24;fill-opacity:1;fill-rule:nonzero;stroke:none" transform="matrix(0.13333333,0,0,-0.13333333,0,377.94667)"/>
      <path id="path15" d="m 2036.82,226.609 19.26,9.891 18.81,10.73 37.54,21.598 -84.36,139.102 -33,-18.95 -16.51,-9.46 -16.94,-8.649 75.2,-144.262" style="fill:#ed1c24;fill-opacity:1;fill-rule:nonzero;stroke:none" transform="matrix(0.13333333,0,0,-0.13333333,0,377.94667)"/>
      <path id="path16" d="m 2112.43,268.828 36.44,23.274 18.19,11.687 17.66,12.473 -93.13,133.386 -15.5,-11 -16.01,-10.238 -32.01,-20.48 84.36,-139.102" style="fill:#fddd04;fill-opacity:1;fill-rule:nonzero;stroke:none" transform="matrix(0.13333333,0,0,-0.13333333,0,377.94667)"/>
      <path id="path17" d="m 2184.72,316.262 35.28,25.117 34.08,26.723 -101.5,127.128 -29.95,-23.531 -31.04,-22.051 93.13,-133.386" style="fill:#1d438c;fill-opacity:1;fill-rule:nonzero;stroke:none" transform="matrix(0.13333333,0,0,-0.13333333,0,377.94667)"/>
      <path id="path18" d="m 2644.07,872.559 c 35.19,79.121 62.64,161.701 81.81,246.151 l -158.63,36.06 c -16.83,-74.15 -40.92,-146.63 -71.82,-216.11 l 148.64,-66.101" style="fill:#ed1c24;fill-opacity:1;fill-rule:nonzero;stroke:none" transform="matrix(0.13333333,0,0,-0.13333333,0,377.94667)"/>
      <path id="path19" d="m 2646.58,1136.73 c -18,-79.3 -43.77,-156.832 -76.82,-231.128 l 74.31,-33.043 c 35.19,79.121 62.64,161.701 81.81,246.151 l -79.3,18.02" style="fill:#ffffff;fill-opacity:1;fill-rule:nonzero;stroke:none" transform="matrix(0.13333333,0,0,-0.13333333,0,377.94667)"/>
      <path id="path20" d="m 2758.59,1458.76 c -2.63,86.43 -13.53,172.72 -32.72,257.16 l -158.62,-36.05 c 16.85,-74.15 26.44,-149.95 28.75,-226.06 l 162.59,4.95" style="fill:#ed1c24;fill-opacity:1;fill-rule:nonzero;stroke:none" transform="matrix(0.13333333,0,0,-0.13333333,0,377.94667)"/>
      <path id="path21" d="m 2585.91,1576.91 60.43,8.17 c 2.69,-21.48 5.82,-42.92 6.99,-64.57 1.69,-21.59 3.54,-43.17 3.64,-64.85 l 40.61,1.24 c -0.12,22.37 -2.01,44.66 -3.76,66.95 -1.23,22.34 -4.43,44.49 -7.22,66.67 l 60.51,8.19 -2.76,21.49 -3.72,21.36 -60.21,-10.14 c -4.22,23.76 -8.17,47.56 -14.08,70.97 l -39.61,-9 c 5.73,-22.66 9.53,-45.71 13.63,-68.71 l -60.13,-10.12 3.3,-18.75 2.38,-18.9" style="fill:#ffffff;fill-opacity:1;fill-rule:nonzero;stroke:none" transform="matrix(0.13333333,0,0,-0.13333333,0,377.94667)"/>
      <path id="path22" d="m 2656.43,1700.14 c 6.75,-26.55 10.83,-53.66 15.79,-80.58 l 70.32,11.25 c 1.38,-7.03 2.32,-14.13 3.18,-21.24 l -70.5,-10.12 c 6.46,-47.37 11.16,-95.05 12.2,-142.86 l -20.3,-0.62 c -1.02,47.06 -5.65,93.98 -12,140.59 l -70.41,-10.1 c -0.74,6.25 -1.54,12.49 -2.79,18.66 l 70.24,11.24 c -4.89,26.48 -8.88,53.15 -15.53,79.28 l 19.8,4.5" style="fill:#1c63b7;fill-opacity:1;fill-rule:nonzero;stroke:none" transform="matrix(0.13333333,0,0,-0.13333333,0,377.94667)"/>
      <path id="path23" d="m 2734.59,1159.28 c 16.6,84.99 24.91,171.56 25.04,258.04 h -162.64 c -0.14,-76.21 -7.45,-152.29 -22.04,-226.94 l 159.64,-31.1" style="fill:#ffffff;fill-opacity:1;fill-rule:nonzero;stroke:none" transform="matrix(0.13333333,0,0,-0.13333333,0,377.94667)"/>
      <path id="path24" d="m 2628.15,1180.02 c 15.27,78.09 22.91,157.67 23.04,237.3 h -54.24 c -0.14,-76.21 -7.45,-152.29 -22.04,-226.93 l 53.24,-10.37" style="fill:#1c63b7;fill-opacity:1;fill-rule:nonzero;stroke:none" transform="matrix(0.13333333,0,0,-0.13333333,0,377.94667)"/>
      <path id="path25" d="m 2734.59,1159.28 c 16.6,84.99 24.91,171.56 25.04,258.04 h -54.27 c -0.13,-83.05 -8.11,-166.12 -24.04,-247.66 l 53.27,-10.38" style="fill:#ed1c24;fill-opacity:1;fill-rule:nonzero;stroke:none" transform="matrix(0.13333333,0,0,-0.13333333,0,377.94667)"/>
      <path id="path26" d="m 2716.35,1756.32 c -21.77,83.84 -51.78,165.55 -89.41,243.56 L 2578,1976.27 c 36.1,-74.84 64.89,-153.21 85.77,-233.63 l 52.58,13.68" style="fill:#ed1c24;fill-opacity:1;fill-rule:nonzero;stroke:none" transform="matrix(0.13333333,0,0,-0.13333333,0,377.94667)"/>
      <path id="path27" d="m 2663.77,1742.64 c -20.88,80.42 -49.67,158.79 -85.77,233.63 l -48.93,-23.61 c 34.57,-71.66 62.13,-146.7 82.12,-223.71 l 52.58,13.69" style="fill:#ffffff;fill-opacity:1;fill-rule:nonzero;stroke:none" transform="matrix(0.13333333,0,0,-0.13333333,0,377.94667)"/>
      <path id="path28" d="m 2558.92,1715.35 52.3,13.61 c -19.99,77.01 -47.55,152.05 -82.12,223.72 l -48.58,-23.7 c 33.01,-68.44 59.31,-140.1 78.4,-213.63" style="fill:#0e88d3;fill-opacity:1;fill-rule:nonzero;stroke:none" transform="matrix(0.13333333,0,0,-0.13333333,0,377.94667)"/>
      <path id="path29" d="m 2608.04,2036.82 -9.9,19.27 -10.72,18.82 -21.61,37.54 -139.1,-84.36 18.96,-33 9.46,-16.52 8.65,-16.94 144.26,75.19" style="fill:#ed1c24;fill-opacity:1;fill-rule:nonzero;stroke:none" transform="matrix(0.13333333,0,0,-0.13333333,0,377.94667)"/>
      <path id="path30" d="m 2565.81,2112.45 -23.23,36.37 -11.66,18.16 -12.45,17.63 -133.4,-93.12 10.97,-15.47 10.22,-15.98 20.45,-31.95 139.1,84.36" style="fill:#ffffff;fill-opacity:1;fill-rule:nonzero;stroke:none" transform="matrix(0.13333333,0,0,-0.13333333,0,377.94667)"/>
      <path id="path31" d="m 2518.47,2184.61 -25.16,35.34 -26.76,34.14 -127.13,-101.51 23.57,-29.99 22.08,-31.1 133.4,93.12" style="fill:#00a650;fill-opacity:1;fill-rule:nonzero;stroke:none" transform="matrix(0.13333333,0,0,-0.13333333,0,377.94667)"/>
      <path id="path32" d="m 2440.19,2286.1 -28.37,32.72 -29.81,31.4 -116.93,-113.09 26.25,-27.59 24.92,-28.81 123.94,105.37" style="fill:#f68712;fill-opacity:1;fill-rule:nonzero;stroke:none" transform="matrix(0.13333333,0,0,-0.13333333,0,377.94667)"/>
      <path id="path33" d="m 2382.01,2350.22 -14.93,15.63 -15.6,14.95 -31.29,29.81 -109.45,-120.34 27.49,-26.25 13.75,-13.13 13.1,-13.76 116.93,113.09" style="fill:#ffffff;fill-opacity:1;fill-rule:nonzero;stroke:none" transform="matrix(0.13333333,0,0,-0.13333333,0,377.94667)"/>
      <path id="path34" d="m 2320.16,2410.64 -32.69,28.36 -16.37,14.15 -17,13.39 -101.51,-127.12 14.98,-11.74 14.37,-12.48 28.77,-24.91 109.45,120.35" style="fill:#00a650;fill-opacity:1;fill-rule:nonzero;stroke:none" transform="matrix(0.13333333,0,0,-0.13333333,0,377.94667)"/>
      <path id="path35" d="m 2221.44,2492.18 c -69.25,51.91 -143.55,97.13 -221.55,134.75 L 1976.28,2578 c 74.83,-36.09 146.12,-79.48 212.58,-129.3 l 32.58,43.48" style="fill:#ed1c24;fill-opacity:1;fill-rule:nonzero;stroke:none" transform="matrix(0.13333333,0,0,-0.13333333,0,377.94667)"/>
      <path id="path36" d="m 2188.86,2448.7 c -66.46,49.82 -137.75,93.21 -212.58,129.3 l -23.61,-48.94 c 71.66,-34.56 139.95,-76.12 203.61,-123.84 l 32.58,43.48" style="fill:#ffffff;fill-opacity:1;fill-rule:nonzero;stroke:none" transform="matrix(0.13333333,0,0,-0.13333333,0,377.94667)"/>
      <path id="path37" d="m 2123.92,2361.97 32.41,43.25 c -63.68,47.74 -131.97,89.31 -203.64,123.87 l -23.25,-48.8 c 68.43,-33.02 133.65,-72.72 194.48,-118.32" style="fill:#00a650;fill-opacity:1;fill-rule:nonzero;stroke:none" transform="matrix(0.13333333,0,0,-0.13333333,0,377.94667)"/>
      <path id="path38" d="m 206.488,1654.63 c -15.258,-78.09 -22.906,-157.67 -23.039,-237.3 h 54.25 c 0.133,76.2 7.446,152.28 22.035,226.93 l -53.246,10.37" style="fill:#fddd04;fill-opacity:1;fill-rule:nonzero;stroke:none" transform="matrix(0.13333333,0,0,-0.13333333,0,377.94667)"/>
      <path id="path39" d="m 153.313,1664.99 c -15.93,-81.54 -23.907,-164.61 -24.036,-247.66 h 54.172 c 0.133,79.63 7.781,159.21 23.039,237.3 l -53.175,10.36" style="fill:#ed1c24;fill-opacity:1;fill-rule:nonzero;stroke:none" transform="matrix(0.13333333,0,0,-0.13333333,0,377.94667)"/>
      <path id="path40" d="M 100.059,1675.37 C 83.4492,1590.38 75.1484,1503.81 75.0195,1417.33 h 54.2575 c 0.129,83.05 8.106,166.12 24.036,247.66 l -53.254,10.38" style="fill:#231f20;fill-opacity:1;fill-rule:nonzero;stroke:none" transform="matrix(0.13333333,0,0,-0.13333333,0,377.94667)"/>
      <path id="path41" d="m 1675.37,2734.59 c -28.42,5.09 -56.78,10.57 -85.49,13.64 l -20.73,-161.35 c 25.25,-2.63 50.14,-7.55 75.11,-11.96 l 31.11,159.67" style="fill:#ed1c24;fill-opacity:1;fill-rule:nonzero;stroke:none" transform="matrix(0.13333333,0,0,-0.13333333,0,377.94667)"/>
      <path id="path42" d="m 1589.88,2748.23 c -14.33,1.66 -28.61,3.99 -43,5.06 l -43.17,3.3 -10.33,-162.36 37.98,-2.87 c 12.66,-0.91 25.19,-3.04 37.79,-4.48 l 20.73,161.35" style="fill:#ffffff;fill-opacity:1;fill-rule:nonzero;stroke:none" transform="matrix(0.13333333,0,0,-0.13333333,0,377.94667)"/>
      <path id="path43" d="m 1503.71,2756.59 c -14.36,1.35 -28.77,1.66 -43.17,1.97 l -43.21,1.07 v -162.68 l 38.05,-0.98 c 12.69,-0.27 25.38,-0.49 38,-1.74 l 10.33,162.36" style="fill:#1c63b7;fill-opacity:1;fill-rule:nonzero;stroke:none" transform="matrix(0.13333333,0,0,-0.13333333,0,377.94667)"/>
      <path id="path44" d="m 1375.89,2758.61 c -86.44,-2.63 -172.73,-13.53 -257.17,-32.72 l 36.01,-158.43 c 74.17,16.86 149.98,26.44 226.1,28.76 l -4.94,162.39" style="fill:#ffffff;fill-opacity:1;fill-rule:nonzero;stroke:none" transform="matrix(0.13333333,0,0,-0.13333333,0,377.94667)"/>
      <path id="path45" d="m 1141.61,2625.21 c 23.38,5.93 47.2,9.76 70.93,14.02 l 9.75,-58.62 c 13.67,2.77 27.53,4.28 41.36,6.03 l -7.67,58.94 30.63,3.9 c 10.22,1.19 20.52,1.66 30.77,2.54 l 30.79,2.34 c 10.26,0.81 20.58,0.67 30.86,1.05 l -1.35,44.24 c -10.64,-0.39 -21.31,-0.27 -31.94,-1.1 l -31.88,-2.41 c -10.62,-0.91 -21.28,-1.42 -31.86,-2.64 l -31.73,-4.03 -7.61,58.48 c -15.73,-2.01 -31.49,-3.8 -47.06,-6.89 l 9.68,-58.17 c -24.59,-4.4 -49.25,-8.4 -73.48,-14.52 l 9.81,-43.16" style="fill:#1c63b7;fill-opacity:1;fill-rule:nonzero;stroke:none" transform="matrix(0.13333333,0,0,-0.13333333,0,377.94667)"/>
      <path id="path46" d="m 834.773,2626.94 c 78.004,37.63 159.707,67.64 243.547,89.41 l 40.98,-157.43 c -73.61,-19.11 -145.331,-45.45 -213.843,-78.5 l -70.684,146.52" style="fill:#1c63b7;fill-opacity:1;fill-rule:nonzero;stroke:none" transform="matrix(0.13333333,0,0,-0.13333333,0,377.94667)"/>
      <path id="path47" d="m 858.34,2578.09 c 74.836,36.11 153.22,64.89 233.65,85.78 l 27.31,-104.95 c -73.61,-19.11 -145.331,-45.45 -213.843,-78.5 l -47.117,97.67" style="fill:#050301;fill-opacity:1;fill-rule:nonzero;stroke:none" transform="matrix(0.13333333,0,0,-0.13333333,0,377.94667)"/>
      <path id="path48" d="m 881.895,2529.26 c 71.671,34.58 146.725,62.15 223.745,82.14 l 13.66,-52.48 c -73.61,-19.11 -145.331,-45.45 -213.843,-78.5 l -23.562,48.84" style="fill:#ffffff;fill-opacity:1;fill-rule:nonzero;stroke:none" transform="matrix(0.13333333,0,0,-0.13333333,0,377.94667)"/>
      <path id="path49" d="M 548.543,2440.19 C 482.617,2384.14 422.102,2321.73 368.109,2254.1 l 127.125,-101.51 c 47.477,59.47 100.704,114.37 158.68,163.66 l -105.371,123.94" style="fill:#ed1c24;fill-opacity:1;fill-rule:nonzero;stroke:none" transform="matrix(0.13333333,0,0,-0.13333333,0,377.94667)"/>
      <path id="path50" d="m 449.559,2346.99 50.308,-48.34 c 14.551,15.85 30.219,30.58 45.824,45.37 15.266,15.17 31.852,28.87 48.043,43.02 l 14.989,-17.63 c -15.899,-13.89 -32.196,-27.34 -47.176,-42.24 -15.317,-14.53 -30.719,-28.98 -44.996,-44.55 l 50.312,-48.34 -15.027,-15.75 -51.188,47.41 c -10.859,-10.86 -20.332,-22.97 -30.55,-34.41 l -15.071,-17.39 c -4.941,-5.87 -9.531,-12.02 -14.316,-18.01 l -18.082,14.44 c 4.875,6.1 9.551,12.36 14.586,18.34 l 15.344,17.71 c 10.406,11.65 20.062,23.98 31.113,35.04 l -51.188,47.41 17.075,17.92" style="fill:#ffffff;fill-opacity:1;fill-rule:nonzero;stroke:none" transform="matrix(0.13333333,0,0,-0.13333333,0,377.94667)"/>
      <path id="path51" d="m 2233.4,456.441 52.7,-61.98 c 65.93,56.051 126.44,118.461 180.44,186.09 -23.65,-8.821 -48.39,-15.879 -72.23,-22.852 -23.6,-7.187 -48.25,-12.539 -71.92,-17.898 -13.72,-15.031 -28.88,-28.621 -43.49,-42.75 -14.42,-14.36 -30.24,-27.172 -45.5,-40.61" style="fill:#ffffff;fill-opacity:1;fill-rule:nonzero;stroke:none" transform="matrix(0.13333333,0,0,-0.13333333,0,377.94667)"/>
      <path id="path52" d="m 2322.39,539.801 c 4.21,24.23 8.48,47.531 10.87,71.66 2.63,23.898 5.33,46.898 6.15,70.598 -47.47,-59.469 -100.7,-114.368 -158.68,-163.661 l 52.67,-61.957 c 15.26,13.438 31.08,26.25 45.5,40.61 14.61,14.129 29.77,27.719 43.49,42.75" style="fill:#ed1c24;fill-opacity:1;fill-rule:nonzero;stroke:none" transform="matrix(0.13333333,0,0,-0.13333333,0,377.94667)"/>
      <path id="path53" d="m 2466.54,580.551 -127.13,101.508 c -0.82,-23.7 -3.52,-46.7 -6.15,-70.598 -2.39,-24.129 -6.66,-47.43 -10.87,-71.66 23.67,5.359 48.32,10.711 71.92,17.898 23.84,6.973 48.58,14.031 72.23,22.852" style="fill:#176fc1;fill-opacity:1;fill-rule:nonzero;stroke:none" transform="matrix(0.13333333,0,0,-0.13333333,0,377.94667)"/>
      <path id="path54" d="m 342.492,2221.47 -25.16,-35.24 -12.527,-17.66 -11.739,-18.19 136.192,-88.97 10.289,16.01 11.043,15.5 22.09,31.01 -130.188,97.54" style="fill:#ed1c24;fill-opacity:1;fill-rule:nonzero;stroke:none" transform="matrix(0.13333333,0,0,-0.13333333,0,377.94667)"/>
      <path id="path55" d="m 293.066,2150.38 -23.312,-36.4 -21.59,-37.45 141.633,-80.02 18.941,32.92 20.52,31.98 -136.192,88.97" style="fill:#fddd04;fill-opacity:1;fill-rule:nonzero;stroke:none" transform="matrix(0.13333333,0,0,-0.13333333,0,377.94667)"/>
      <path id="path56" d="m 248.164,2076.53 -10.781,-18.8 -9.922,-19.26 -19.742,-38.58 146.519,-70.69 17.371,33.88 8.684,16.94 9.504,16.49 -141.633,80.02" style="fill:#231f20;fill-opacity:1;fill-rule:nonzero;stroke:none" transform="matrix(0.13333333,0,0,-0.13333333,0,377.94667)"/>
      <path id="path57" d="m 190.574,1962.09 c -35.191,-79.12 -62.636,-161.7 -81.804,-246.15 l 158.625,-36.06 c 16.835,74.15 40.925,146.63 71.824,216.11 l -148.645,66.1" style="fill:#ffffff;fill-opacity:1;fill-rule:nonzero;stroke:none" transform="matrix(0.13333333,0,0,-0.13333333,0,377.94667)"/>
      <path id="path58" d="m 289.602,1918.05 c -32.329,-72.69 -57.539,-148.55 -75.149,-226.13 l 52.942,-12.04 c 16.835,74.15 40.925,146.63 71.824,216.11 l -49.617,22.06" style="fill:#ed1c24;fill-opacity:1;fill-rule:nonzero;stroke:none" transform="matrix(0.13333333,0,0,-0.13333333,0,377.94667)"/>
      <path id="path59" d="m 190.574,1962.09 c -35.191,-79.12 -62.636,-161.7 -81.804,-246.15 l 52.875,-12.02 c 18.394,81.02 44.722,160.23 78.476,236.14 l -49.547,22.03" style="fill:#ed1c24;fill-opacity:1;fill-rule:nonzero;stroke:none" transform="matrix(0.13333333,0,0,-0.13333333,0,377.94667)"/>
      <path id="path60" d="M 872.551,190.578 C 951.672,155.391 1034.25,127.941 1118.7,108.77 l 36.06,158.628 c -74.15,16.84 -146.63,40.922 -216.108,71.821 L 872.551,190.578" style="fill:#ed1c24;fill-opacity:1;fill-rule:nonzero;stroke:none" transform="matrix(0.13333333,0,0,-0.13333333,0,377.94667)"/>
      <path id="path61" d="m 971.27,223.641 c 10.183,-4.301 20.843,-7.321 31.25,-11.02 l -10.645,-30.93 25.795,-8.722 9.99,31.14 c 10.38,-3.757 21.06,-6.519 31.65,-9.57 l 7.34,25.121 c -10.37,2.988 -20.83,5.692 -30.99,9.379 l 10.08,31.383 -23.97,8.109 -10.73,-31.16 c -10.19,3.629 -20.63,6.57 -30.602,10.789 l -9.168,-24.519" style="fill:#ffffff;fill-opacity:1;fill-rule:nonzero;stroke:none" transform="matrix(0.13333333,0,0,-0.13333333,0,377.94667)"/>
      <path id="path62" d="m 1159.27,100.059 c 85,-16.5981 171.56,-24.9106 258.04,-25.0395 V 237.68 c -76.2,0.14 -152.28,7.449 -226.93,22.039 l -31.11,-159.66" style="fill:#fddd04;fill-opacity:1;fill-rule:nonzero;stroke:none" transform="matrix(0.13333333,0,0,-0.13333333,0,377.94667)"/>
      <path id="path63" d="m 1330.87,78.0703 c 14.37,-1.3515 28.79,-1.6601 43.2,-1.9805 l 43.24,-1.0703 v 65.1795 l -41.17,1.039 c -13.73,0.293 -27.45,0.571 -41.13,1.883 l -4.14,-65.0507" style="fill:#1c63b7;fill-opacity:1;fill-rule:nonzero;stroke:none" transform="matrix(0.13333333,0,0,-0.13333333,0,377.94667)"/>
      <path id="path64" d="m 1337.07,175.48 c 13.33,-1.289 26.71,-1.55 40.1,-1.832 l 40.14,-1.019 v 65.07 l -38.08,0.992 c -12.69,0.258 -25.39,0.489 -38.03,1.731 l -4.13,-64.942" style="fill:#1c63b7;fill-opacity:1;fill-rule:nonzero;stroke:none" transform="matrix(0.13333333,0,0,-0.13333333,0,377.94667)"/>
      <path id="path65" d="m 1159.27,100.059 c 45.33,-8.6879 91.05,-15.2777 136.98,-19.3481 l 5.82,64.9181 c -43.72,3.871 -87.21,10.152 -130.33,18.41 l -12.47,-63.98" style="fill:#1c63b7;fill-opacity:1;fill-rule:nonzero;stroke:none" transform="matrix(0.13333333,0,0,-0.13333333,0,377.94667)"/>
      <path id="path66" d="m 1177.94,195.871 c 42.02,-8.051 84.4,-14.16 127.02,-17.941 l 5.8,64.808 c -40.4,3.582 -80.56,9.383 -120.38,17 l -12.44,-63.867" style="fill:#1c63b7;fill-opacity:1;fill-rule:nonzero;stroke:none" transform="matrix(0.13333333,0,0,-0.13333333,0,377.94667)"/>
      <path id="path67" d="m 1803.72,2684.58 c 12.98,-3.59 25.58,-8.41 38.38,-12.57 12.7,-4.47 25.64,-8.29 38.13,-13.32 24.96,-10.1 50.39,-19.09 74.7,-30.72 l 7.15,16.07 c -24.64,11.78 -50.41,20.91 -75.7,31.12 -12.66,5.11 -25.77,8.98 -38.64,13.51 -12.97,4.22 -25.74,9.09 -38.89,12.74 l -5.13,-16.83" style="fill:#1c63b7;fill-opacity:1;fill-rule:nonzero;stroke:none" transform="matrix(0.13333333,0,0,-0.13333333,0,377.94667)"/>
      <path id="path68" d="m 1947.61,2611.51 c -23.97,11.48 -49.06,20.33 -73.68,30.3 -12.32,4.97 -25.08,8.73 -37.6,13.14 -12.63,4.1 -25.06,8.86 -37.86,12.4 l -5.35,-17.58 c 12.62,-3.48 24.87,-8.18 37.32,-12.22 12.34,-4.36 24.93,-8.05 37.07,-12.96 24.27,-9.83 49,-18.54 72.64,-29.87 l 7.46,16.79" style="fill:#1c63b7;fill-opacity:1;fill-rule:nonzero;stroke:none" transform="matrix(0.13333333,0,0,-0.13333333,0,377.94667)"/>
      <path id="path69" d="m 1782.56,2615.1 c 12.27,-3.38 24.16,-7.96 36.26,-11.89 11.99,-4.23 24.23,-7.8 36.02,-12.58 23.57,-9.57 47.62,-18 70.58,-29.02 l 7.24,16.29 c -23.28,11.17 -47.67,19.74 -71.58,29.44 -11.97,4.85 -24.38,8.48 -36.54,12.77 -12.28,3.98 -24.34,8.62 -36.78,12.05 l -5.2,-17.06" style="fill:#1c63b7;fill-opacity:1;fill-rule:nonzero;stroke:none" transform="matrix(0.13333333,0,0,-0.13333333,0,377.94667)"/>
      <path id="path70" d="m 1687.82,2602.14 c 76.41,-17.34 151.11,-42.17 222.71,-74.01 l 7.41,16.66 c -72.68,32.32 -148.52,57.52 -226.09,75.13 l -4.03,-17.78" style="fill:#1c63b7;fill-opacity:1;fill-rule:nonzero;stroke:none" transform="matrix(0.13333333,0,0,-0.13333333,0,377.94667)"/>
      <path id="path71" d="m 1679.88,2567.25 c 74.15,-16.83 146.63,-40.92 216.11,-71.82 l 7.13,16.04 c -70.52,31.36 -144.09,55.82 -219.35,72.9 l -3.89,-17.12" style="fill:#1c63b7;fill-opacity:1;fill-rule:nonzero;stroke:none" transform="matrix(0.13333333,0,0,-0.13333333,0,377.94667)"/>
      <path id="path72" d="m 1798.47,2667.35 c 12.8,-3.54 25.23,-8.3 37.86,-12.4 12.52,-4.41 25.28,-8.17 37.6,-13.14 24.62,-9.97 49.71,-18.82 73.68,-30.3 l 7.32,16.46 c -24.31,11.63 -49.74,20.62 -74.7,30.72 -12.49,5.03 -25.43,8.85 -38.13,13.32 -12.8,4.16 -25.4,8.98 -38.38,12.57 l -5.25,-17.23" style="fill:#ffffff;fill-opacity:1;fill-rule:nonzero;stroke:none" transform="matrix(0.13333333,0,0,-0.13333333,0,377.94667)"/>
      <path id="path73" d="m 1787.77,2632.2 c 12.44,-3.43 24.51,-8.08 36.78,-12.06 12.17,-4.29 24.57,-7.92 36.54,-12.76 23.91,-9.7 48.3,-18.27 71.59,-29.44 l 7.47,16.78 c -23.64,11.33 -48.37,20.04 -72.64,29.87 -12.14,4.91 -24.73,8.6 -37.07,12.96 -12.45,4.04 -24.7,8.74 -37.32,12.22 l -5.35,-17.57" style="fill:#ffffff;fill-opacity:1;fill-rule:nonzero;stroke:none" transform="matrix(0.13333333,0,0,-0.13333333,0,377.94667)"/>
      <path id="path74" d="m 1691.85,2619.92 c 77.57,-17.61 153.41,-42.81 226.09,-75.13 l 7.48,16.82 c -73.78,32.8 -150.75,58.39 -229.48,76.26 l -4.09,-17.95" style="fill:#ffffff;fill-opacity:1;fill-rule:nonzero;stroke:none" transform="matrix(0.13333333,0,0,-0.13333333,0,377.94667)"/>
      <path id="path75" d="m 1683.78,2584.4 c 75.26,-17.08 148.84,-41.54 219.36,-72.9 l 7.39,16.63 c -71.6,31.84 -146.3,56.67 -222.71,74.01 l -4.04,-17.74" style="fill:#ffffff;fill-opacity:1;fill-rule:nonzero;stroke:none" transform="matrix(0.13333333,0,0,-0.13333333,0,377.94667)"/>
      <path id="path76" d="m 1808.93,2701.68 -46.24,13.13 c -15.36,4.57 -31.13,7.51 -46.69,11.32 l -20.01,-88 c 14.5,-3.57 29.23,-6.25 43.54,-10.54 l 43.11,-12.24 26.29,86.33" style="fill:#1c63b7;fill-opacity:1;fill-rule:nonzero;stroke:none" transform="matrix(0.13333333,0,0,-0.13333333,0,377.94667)"/>
      <path id="path77" d="m 1798.47,2667.35 -35.82,10.18 9.46,34.61 -18.83,5.33 -8.95,-34.75 -36.29,8.41 -4.07,-17.92 35.77,-8.28 -8.97,-34.84 17.54,-4.99 9.49,34.7 35.32,-10.03 5.35,17.58" style="fill:#ffffff;fill-opacity:1;fill-rule:nonzero;stroke:none" transform="matrix(0.13333333,0,0,-0.13333333,0,377.94667)"/>
      <path id="path78" d="m 1783.08,233.172 c -21.62,8.129 -42.65,16.43 -63.09,24.859 l 10.37,-39.832 52.72,14.973" style="fill:#1c63b7;fill-opacity:1;fill-rule:nonzero;stroke:none" transform="matrix(0.13333333,0,0,-0.13333333,0,377.94667)"/>
      <path id="path79" d="m 1741.48,175.328 h 0.02 l -5.42,20.82 z" style="fill:#ffffff;fill-opacity:1;fill-rule:nonzero;stroke:none" transform="matrix(0.13333333,0,0,-0.13333333,0,377.94667)"/>
      <path id="path80" d="m 1751.89,135.48 4.52,-17.371 c 23.27,27.36 45.68,53.102 65.91,81.442 l 17.7,5.988 c -10.08,-13.82 -20.46,-27.738 -31.15,-41.738 -10.87,-13.473 -22.11,-26.832 -33.64,-40.371 l -18.82,-5.321 0.01,-0.019 27.07,7.672 c 10.44,12.578 20.78,24.578 30.56,37.437 9.77,12.922 19.26,25.762 28.49,38.52 l 18.07,-51.66 7.85,2.66 -23.39,65.57 c -17.58,-5.867 -35.06,-12.051 -52.71,-17.648 l -53.48,-15.18 -5.91,22.73 52.47,14.899 c 17.34,5.492 34.49,11.57 51.73,17.32 l -23.35,65.449 -6.89,-2.32 18.05,-51.617 c -14.74,4.637 -29.21,9.359 -43.43,14.16 -14.23,4.859 -28.48,10.719 -42.31,16.137 l -23.78,-6.778 0.01,-0.031 c 29.67,-11.691 61.03,-24.488 92.71,-33.879 l -17.05,-5.781 c -24.83,8.629 -49.19,18.422 -72.6,27.879 l 1.46,-5.598 c 20.44,-8.429 41.47,-16.73 63.09,-24.859 l -52.72,-14.973 5.72,-22.051 5.42,-20.82 54.57,15.504 c -14.13,-18.293 -28.86,-36.754 -44.18,-55.352" style="fill:#ffffff;fill-opacity:1;fill-rule:nonzero;stroke:none" transform="matrix(0.13333333,0,0,-0.13333333,0,377.94667)"/>
      <path id="path81" d="m 1959.52,291.359 -4.5,9.321 -49.96,-22.61 c 11.26,20.129 21.97,39.969 32.11,59.621 l -7.83,16.231 c -7.48,-14.231 -15.28,-28.524 -23.35,-43 l -12.35,-21.793 -13.18,-21.07 -16.64,-6.571 c 9.04,14.211 17.85,28.114 26.23,42.211 8.2,14.531 16.1,28.93 23.71,43.172 l -6.73,-3.043 c -7.08,-13.137 -14.31,-26.609 -21.95,-39.816 -7.8,-12.852 -15.84,-25.821 -24.14,-38.891 l -19.67,51.02 -6.75,-2.661 24.57,-64.98 c 16.88,6.82 33.99,13.051 50.67,20.34 l 49.76,22.519" style="fill:#ffffff;fill-opacity:1;fill-rule:nonzero;stroke:none" transform="matrix(0.13333333,0,0,-0.13333333,0,377.94667)"/>
      <path id="path82" d="m 1994.64,218.512 c -27.43,4.726 -54.11,9.699 -80.19,15.34 l -17.32,-6.832 25.34,-5.891 25.39,-4.77 c 17.07,-3.089 34.46,-6.089 52.08,-8.839 z m -2.48,5.179 7.82,-16.203 -25.38,-11.527 c -16.15,2.758 -31.97,5.449 -47.7,8.629 -15.87,3.531 -31.5,7.18 -46.86,10.93 l 19.68,-51.071 -7.7,-3.027 -24.62,65.109 c 17.19,6.938 34.63,13.309 51.63,20.731 l 50.7,22.949 4.54,-9.422 -51.76,-23.437 c 22.66,-4.813 45.91,-9.422 69.65,-13.661" style="fill:#ffffff;fill-opacity:1;fill-rule:nonzero;stroke:none" transform="matrix(0.13333333,0,0,-0.13333333,0,377.94667)"/>
      <path id="path83" d="m 1834.51,313.512 c -6.82,-2.774 -13.67,-5.434 -20.69,-7.653 v 0 c 7.02,2.2 13.88,4.86 20.7,7.621 l -0.01,0.032" style="fill:#ed1c24;fill-opacity:1;fill-rule:nonzero;stroke:none" transform="matrix(0.13333333,0,0,-0.13333333,0,377.94667)"/>
      <path id="path84" d="m 1868.46,152.719 v -0.02 c 7.98,2.563 15.79,5.582 23.57,8.699 l -0.01,0.024 c -7.77,-3.133 -15.59,-6.141 -23.56,-8.703" style="fill:#ed1c24;fill-opacity:1;fill-rule:nonzero;stroke:none" transform="matrix(0.13333333,0,0,-0.13333333,0,377.94667)"/>
      <path id="path85" d="m 1732.97,208.191 5.91,-22.73 53.48,15.18 c 17.65,5.597 35.13,11.781 52.71,17.648 l 23.39,-65.57 c 7.97,2.562 15.79,5.57 23.56,8.703 l -24.62,65.109 c 17.19,6.938 34.63,13.309 51.63,20.731 l 50.7,22.949 -10.21,21.148 -49.76,-22.519 c -16.68,-7.289 -33.79,-13.52 -50.67,-20.34 l -24.57,64.98 c -6.82,-2.761 -13.68,-5.421 -20.7,-7.621 l 23.35,-65.449 c -17.24,-5.75 -34.39,-11.828 -51.73,-17.32 l -52.47,-14.899" style="fill:#ed1c24;fill-opacity:1;fill-rule:nonzero;stroke:none" transform="matrix(0.13333333,0,0,-0.13333333,0,377.94667)"/>
      <path id="path86" d="m 1840.02,205.539 -17.7,-5.988 c -20.23,-28.34 -42.64,-54.082 -65.91,-81.442 l 18.82,5.321 c 11.53,13.539 22.77,26.898 33.64,40.371 10.69,14 21.07,27.918 31.15,41.738" style="fill:#ed1c24;fill-opacity:1;fill-rule:nonzero;stroke:none" transform="matrix(0.13333333,0,0,-0.13333333,0,377.94667)"/>
      <path id="path87" d="m 1880.46,268.059 13.18,21.07 12.35,21.793 c 8.07,14.476 15.87,28.769 23.35,43 l -15.58,-7.051 c -7.61,-14.242 -15.51,-28.641 -23.71,-43.172 -8.38,-14.097 -17.19,-28 -26.23,-42.211 l 16.64,6.571" style="fill:#ed1c24;fill-opacity:1;fill-rule:nonzero;stroke:none" transform="matrix(0.13333333,0,0,-0.13333333,0,377.94667)"/>
      <path id="path88" d="m 1897.13,227.02 25.34,-5.891 25.39,-4.77 c 17.07,-3.089 34.46,-6.089 52.08,-8.839 l -5.3,10.992 c -27.43,4.726 -54.11,9.699 -80.19,15.34 l -17.32,-6.832" style="fill:#ed1c24;fill-opacity:1;fill-rule:nonzero;stroke:none" transform="matrix(0.13333333,0,0,-0.13333333,0,377.94667)"/>
      <path id="path89" d="m 1808.18,241.531 c -31.68,9.391 -63.04,22.188 -92.71,33.879 l 3.06,-11.781 c 23.41,-9.457 47.77,-19.25 72.6,-27.879 l 17.05,5.781" style="fill:#ed1c24;fill-opacity:1;fill-rule:nonzero;stroke:none" transform="matrix(0.13333333,0,0,-0.13333333,0,377.94667)"/>
      <path id="path90" d="m 1860.61,150.059 -18.07,51.66 c -9.28,-12.778 -18.84,-25.649 -28.66,-38.59 -9.85,-12.859 -20.24,-24.899 -30.76,-37.5 13,3.82 26.14,7.16 39,11.41 l 38.49,13.02" style="fill:#1c63b7;fill-opacity:1;fill-rule:nonzero;stroke:none" transform="matrix(0.13333333,0,0,-0.13333333,0,377.94667)"/>
      <path id="path91" d="m 1899.72,164.449 -19.68,51.071 c 15.36,-3.75 30.99,-7.399 46.86,-10.93 15.73,-3.18 31.55,-5.871 47.7,-8.629 -12.36,-5.531 -24.64,-11.262 -37.09,-16.602 l -37.79,-14.91" style="fill:#1c63b7;fill-opacity:1;fill-rule:nonzero;stroke:none" transform="matrix(0.13333333,0,0,-0.13333333,0,377.94667)"/>
      <path id="path92" d="m 1905.06,278.07 c 11.24,20.149 21.93,40.008 32.05,59.668 l 17.88,-37.066 -49.93,-22.602" style="fill:#1c63b7;fill-opacity:1;fill-rule:nonzero;stroke:none" transform="matrix(0.13333333,0,0,-0.13333333,0,377.94667)"/>
      <path id="path93" d="m 1796.07,190.832 c -14.16,-18.293 -28.91,-36.754 -44.25,-55.344 l -10.37,39.832 54.62,15.512" style="fill:#1c63b7;fill-opacity:1;fill-rule:nonzero;stroke:none" transform="matrix(0.13333333,0,0,-0.13333333,0,377.94667)"/>
      <path id="path94" d="m 1922.45,237.332 c 22.65,-4.812 45.87,-9.422 69.6,-13.66 l -17.87,37.066 -51.73,-23.406" style="fill:#1c63b7;fill-opacity:1;fill-rule:nonzero;stroke:none" transform="matrix(0.13333333,0,0,-0.13333333,0,377.94667)"/>
      <path id="path95" d="m 1806.92,303.582 18.06,-51.66 c -14.8,4.629 -29.34,9.34 -43.61,14.129 -14.3,4.871 -28.61,10.711 -42.5,16.129 11.41,3.359 22.97,6.218 34.25,9.961 l 33.8,11.441" style="fill:#1c63b7;fill-opacity:1;fill-rule:nonzero;stroke:none" transform="matrix(0.13333333,0,0,-0.13333333,0,377.94667)"/>
      <path id="path96" d="m 1841.24,316.219 19.68,-51.071 c 8.3,13.082 16.34,26.063 24.13,38.922 7.64,13.219 14.87,26.7 21.94,39.852 -10.86,-4.852 -21.63,-9.922 -32.55,-14.621 l -33.2,-13.082" style="fill:#1c63b7;fill-opacity:1;fill-rule:nonzero;stroke:none" transform="matrix(0.13333333,0,0,-0.13333333,0,377.94667)"/>
      <path id="path97" d="M 834.773,207.719 C 756.758,245.34 682.441,290.578 613.172,342.5 l 97.551,130.191 c 60.902,-45.66 126.215,-85.41 194.742,-118.461 L 834.773,207.719" style="fill:#ffffff;fill-opacity:1;fill-rule:nonzero;stroke:none" transform="matrix(0.13333333,0,0,-0.13333333,0,377.94667)"/>
      <path id="path98" d="m 675.574,330.039 c 10.739,-4.578 16.184,-2.98 30,-5.891 20.223,-2.207 41.371,-12.437 54.75,-22.808 8.27,-7.262 20.887,3.14 28.645,-1.418 3.121,-1.66 4.488,-3.063 6.445,-3.184 5.496,0.711 16.793,-3.097 20.781,1.942 4.86,11.519 1.184,25.129 -9.613,32.41 -3.84,2.949 -7.668,7.332 -10.012,11.082 -1.175,1.879 -2.035,1.269 -5.41,0.789 -8.726,-1.402 -17.676,2.148 -25.652,3.309 -5.481,0.652 -14.684,-1.168 -19.621,-0.321 -7.035,0.18 -12.387,5 -16.942,7.11 -1.179,0.48 -2.066,0.511 -2.507,-0.309 -1.188,-4.16 0.89,-10.121 -1.45,-14.262 -5.644,-10.648 -41.566,-4.386 -49.468,-8.34 l 0.054,-0.109" style="fill:#f68712;fill-opacity:1;fill-rule:nonzero;stroke:none" transform="matrix(0.13333333,0,0,-0.13333333,0,377.94667)"/>
      <path id="path99" d="m 742.465,374.988 c 9.242,2.051 23.883,4.742 34.16,3.66 6.34,-0.527 14.109,-3.398 19.555,0.543 -0.805,-6.48 5.465,-11.859 8.82,-17.371 5.734,-8.66 10.195,-22.949 12.699,-32.129 1.348,-4.953 5.121,-0.171 6.215,3.571 3.629,14.398 -2.656,29.75 -18.285,43.09 -2.711,2.546 -5.18,5.16 -6.789,7.277 -2.641,0.391 -6.27,1.062 -9.735,2.351 -19.007,7.711 -35.425,6.161 -46.386,-3.789 -2.785,-2.711 -5.227,-8.312 -0.254,-7.203" style="fill:#206842;fill-opacity:1;fill-rule:nonzero;stroke:none" transform="matrix(0.13333333,0,0,-0.13333333,0,377.94667)"/>
      <path id="path100" d="m 256.508,858.309 c -36.113,74.851 -64.903,153.241 -85.793,233.681 l 52.531,13.68 c 20,-77.03 47.563,-152.092 82.149,-223.772 l -48.887,-23.589" style="fill:#284ca4;fill-opacity:1;fill-rule:nonzero;stroke:none" transform="matrix(0.13333333,0,0,-0.13333333,0,377.94667)"/>
      <path id="path101" d="m 207.715,834.77 c -37.637,78.011 -67.652,159.73 -89.418,243.58 l 52.473,13.66 c 20.882,-80.44 49.671,-158.83 85.785,-233.682 l -48.84,-23.558" style="fill:#ffffff;fill-opacity:1;fill-rule:nonzero;stroke:none" transform="matrix(0.13333333,0,0,-0.13333333,0,377.94667)"/>
      <path id="path102" d="m 305.281,881.84 c -34.586,71.691 -62.152,146.76 -82.152,223.79 l 52.598,13.69 c 19.109,-73.61 45.449,-145.34 78.503,-213.859 L 305.281,881.84" style="fill:#ed1d28;fill-opacity:1;fill-rule:nonzero;stroke:none" transform="matrix(0.13333333,0,0,-0.13333333,0,377.94667)"/>
      <path id="path103" d="m 287.852,965.18 c -0.68,-7.852 -2.395,-17.809 -7.067,-27.258 -4.418,-9.32 -11.769,-18.152 -24.426,-23.652 -25.293,-10.989 -37.363,-14.731 -37.363,-14.731 -5.082,10.633 -9.023,21.75 -13.441,32.66 l -12.953,32.871 c 0,0 11.269,5.61 37.148,15.129 25.922,9.41 46.453,-4.621 58.102,-15.019" style="fill:#ffffff;fill-opacity:1;fill-rule:nonzero;stroke:none" transform="matrix(0.13333333,0,0,-0.13333333,0,377.94667)"/>
      <path id="path104" d="m 195.363,963.93 c 4.075,1.879 15.36,6.929 35.176,14.261 18.496,6.821 37.145,1.868 55.094,-13.91 -1.137,-11.941 -4.344,-22.051 -9.344,-30.109 -4.844,-7.981 -11.777,-14.024 -20.82,-17.934 -19.406,-8.379 -31.074,-12.539 -35.332,-13.988 -8.903,20.289 -16.492,41.129 -24.774,61.68 z m 93.961,2.808 c -19.453,17.403 -39.898,22.934 -60.363,15.473 -12.856,-4.711 -22.086,-8.43 -28.16,-11.012 -6.074,-2.578 -8.992,-4.019 -9.227,-4.148 l -1.726,-0.852 c 9.371,-23.097 17.722,-46.629 27.996,-69.34 l 1.851,0.582 c 0.254,0.071 3.371,1.047 9.559,3.379 6.187,2.328 15.445,6.008 27.992,11.481 19.992,8.758 30.156,26.508 32.746,52.75 l 0.078,1.008 -0.746,0.679" style="fill:#ffffff;fill-opacity:1;fill-rule:nonzero;stroke:none" transform="matrix(0.13333333,0,0,-0.13333333,0,377.94667)"/>
      <path id="path105" d="m 231.152,977.602 c -23.722,-8.793 -34.05,-13.961 -34.05,-13.961 l 11.847,-30.082 c 4.106,-9.957 7.578,-20.18 12.211,-29.918 0,0 11.086,3.41 34.313,13.437 3.961,1.703 7.175,3.883 10.097,6.192 -8.117,18.73 -15.148,37.91 -22.773,56.839 -3.75,-0.347 -7.602,-1.007 -11.645,-2.507" style="fill:#ed1d28;fill-opacity:1;fill-rule:nonzero;stroke:none" transform="matrix(0.13333333,0,0,-0.13333333,0,377.94667)"/>
      <path id="path106" d="m 284.453,963.82 c -8.887,7.969 -23.398,17.95 -41.656,16.289 7.625,-18.929 14.656,-38.109 22.773,-56.839 13.942,11.242 17.891,28.609 18.883,40.55" style="fill:#284ca4;fill-opacity:1;fill-rule:nonzero;stroke:none" transform="matrix(0.13333333,0,0,-0.13333333,0,377.94667)"/>
      <path id="path107" d="m 76.043,1375.9 c 2.6289,-86.43 13.5273,-172.72 32.719,-257.17 l 158.633,36.06 c -16.848,74.15 -26.43,149.95 -28.75,226.06 L 76.043,1375.9" style="fill:#ed1c24;fill-opacity:1;fill-rule:nonzero;stroke:none" transform="matrix(0.13333333,0,0,-0.13333333,0,377.94667)"/>
      <path id="path108" d="m 78.1445,1329.92 3.1836,-41.75 c 0.9766,-13.93 3.2696,-27.73 4.8633,-41.6 1.9258,-13.83 3.1563,-27.76 5.6953,-41.5 l 7.3594,-41.25 159.7809,30.56 -6.48,36.23 c -2.27,12.06 -3.262,24.33 -4.977,36.47 -1.379,12.2 -3.484,24.31 -4.304,36.56 l -2.786,36.73 -162.3355,-10.45" style="fill:#ffffff;fill-opacity:1;fill-rule:nonzero;stroke:none" transform="matrix(0.13333333,0,0,-0.13333333,0,377.94667)"/>
      <path id="path109" d="m 236.742,1268.18 c -8.687,-1.22 -18.39,-2.58 -29.144,-4.1 -1.5,-0.1 -3.45,-0.32 -4,1.09 -0.207,2.36 -0.231,3.99 0.078,6.65 0.066,2.08 0.527,11.23 0.469,15.13 0.113,2.13 0.273,5.2 0.332,6.37 0.023,0.66 -1.036,0.77 -1.387,0.38 -2.863,-1.26 -4.945,-3.49 -8.438,-3.54 -1.632,0.36 -2.636,0.85 -4.336,2.02 -1.929,1.26 -19.972,20.72 -21.523,22.77 -1.586,2.03 -3.996,4.44 -5.508,5.04 -0.472,0.18 -0.328,-0.49 -0.305,-1.3 0.036,-1.18 -0.652,-3.23 -1.179,-4.31 -1.227,-2.7 -3.969,-4.31 -6.363,-3.53 -2.563,0.86 -10.114,2.36 -12.766,3.45 -1.805,0.51 -3.274,0.76 -5.043,0.55 -0.184,-1.87 0.855,-5.19 1.578,-8.15 0.504,-1.52 3.727,-10.1 0.617,-12.41 -1.476,-0.81 -6.14,-3.36 -7.668,-4.19 -1.07,-0.46 2.543,-2.02 3.61,-2.79 3.382,-2.21 10.035,-6.87 11.406,-7.65 2.144,-1.16 5.742,-2.92 5.277,-5.23 -0.144,-2.02 -2.054,-2.13 -4.554,-1.76 -4.825,0.93 -21.411,2.32 -27.735,2.86 -0.812,0.11 -5.472,0.8 -6.058,0.2 -0.704,-1.03 0.976,-1.74 1.589,-2.53 1.368,-1.6 5.274,-6.54 5.145,-9.7 0.055,-2.52 -3.266,-3.7 -5.203,-5.01 -0.985,-0.35 -13.965,-8.23 -15.926,-10.2 2.395,-1.42 16.934,-5.83 17.977,-5.93 2.203,-0.75 5.714,-1.1 6.285,-3.53 0.922,-3.05 -1.633,-8.77 -2.547,-10.69 -0.402,-0.91 -1.852,-2.02 -0.914,-2.84 0.715,-0.43 5.062,1.42 5.82,1.71 5.988,2.08 21.692,7.62 26.137,9.69 2.328,1.01 4.199,1.4 4.848,-0.54 1.031,-2.12 -2.02,-4.71 -3.797,-6.41 -1.133,-1.07 -6.418,-7.25 -9.133,-10.24 -0.84,-1.01 -3.934,-3.48 -2.797,-3.6 1.668,-0.42 6.832,-1.71 8.465,-2.12 3.594,-1.48 2.613,-10.58 2.512,-12.18 0.039,-3.04 -0.137,-6.54 0.511,-8.3 1.153,0.02 3.125,0.85 4.742,1.79 2.293,1.73 9.235,5.08 11.504,6.52 2.118,1.37 5.176,0.5 7.035,-1.81 0.778,-0.89 1.958,-2.72 2.219,-3.87 0.18,-0.8 0.215,-1.49 0.625,-1.2 1.313,0.99 3.039,3.91 4.071,6.27 0.992,2.37 13.593,25.73 15.148,27.43 1.352,1.58 2.195,2.27 3.691,3.06 3.387,0.79 5.977,-0.84 9.051,-1.31 0.445,-0.31 1.442,0.05 1.25,0.7 -0.351,1.11 -1.273,4.05 -1.906,6.06 -0.93,3.81 -3.66,12.54 -4.246,14.55 -0.961,2.48 -1.348,4.07 -1.738,6.42 0.179,1.5 2.121,1.77 3.597,2.03 10.793,1.24 20.528,2.36 29.246,3.36 l -0.621,4.87" style="fill:#ed1c24;fill-opacity:1;fill-rule:nonzero;stroke:none" transform="matrix(0.13333333,0,0,-0.13333333,0,377.94667)"/>
      <path id="path110" d="m 641.449,444.391 c -62.734,50.078 -120.636,106.23 -172.633,167.39 l 49.582,42.141 c 49.29,-57.981 104.184,-111.203 163.657,-158.684 l -40.606,-50.847" style="fill:#9c2536;fill-opacity:1;fill-rule:nonzero;stroke:none" transform="matrix(0.13333333,0,0,-0.13333333,0,377.94667)"/>
      <path id="path111" d="m 621.145,418.969 c -64.364,51.383 -123.766,108.98 -177.114,171.73 l 24.785,21.082 c 51.997,-61.16 109.899,-117.312 172.633,-167.39 l -20.304,-25.422" style="fill:#ffffff;fill-opacity:1;fill-rule:nonzero;stroke:none" transform="matrix(0.13333333,0,0,-0.13333333,0,377.94667)"/>
      <path id="path112" d="m 580.547,368.121 c -67.633,53.988 -130.039,114.5 -186.094,180.438 l 49.578,42.14 c 53.348,-62.75 112.75,-120.347 177.114,-171.73 l -40.598,-50.848" style="fill:#9c2536;fill-opacity:1;fill-rule:nonzero;stroke:none" transform="matrix(0.13333333,0,0,-0.13333333,0,377.94667)"/>
      <path id="path113" d="M 368.094,580.57 C 314.102,648.199 266.625,721.051 226.609,797.828 l 48.086,25.07 C 313.09,749.23 358.645,679.309 410.473,614.41 l -42.379,-33.84" style="fill:#f9b20d;fill-opacity:1;fill-rule:nonzero;stroke:none" transform="matrix(0.13333333,0,0,-0.13333333,0,377.94667)"/>
      <path id="path114" d="M 452.844,648.238 C 403.191,710.43 359.551,777.41 322.781,847.961 l 48.086,25.07 c 35.149,-67.453 76.871,-131.492 124.352,-190.953 l -42.375,-33.84" style="fill:#c2212c;fill-opacity:1;fill-rule:nonzero;stroke:none" transform="matrix(0.13333333,0,0,-0.13333333,0,377.94667)"/>
      <path id="path115" d="M 410.473,614.41 C 358.645,679.309 313.09,749.23 274.695,822.898 l 48.086,25.063 C 359.551,777.41 403.191,710.43 452.844,648.238 L 410.473,614.41" style="fill:#206842;fill-opacity:1;fill-rule:nonzero;stroke:none" transform="matrix(0.13333333,0,0,-0.13333333,0,377.94667)"/>
      <path id="path116" d="m 1417.32,2532.59 c -297.89,0 -577.957,-116.01 -788.605,-326.66 -210.645,-210.64 -326.652,-490.71 -326.652,-788.6 0,-297.9 116.007,-577.959 326.652,-788.611 C 839.363,418.078 1119.43,302.07 1417.32,302.07 c 297.9,0 577.97,116.008 788.61,326.649 210.65,210.64 326.65,490.711 326.65,788.611 0,297.89 -116,577.96 -326.65,788.6 -210.64,210.65 -490.71,326.66 -788.61,326.66 z m 0,-10 c 610.42,0 1105.26,-494.84 1105.26,-1105.26 0,-610.42 -494.84,-1105.26 -1105.26,-1105.26 -610.414,0 -1105.257,494.84 -1105.257,1105.26 0,610.42 494.843,1105.26 1105.257,1105.26" style="fill:#ffffff;fill-opacity:1;fill-rule:nonzero;stroke:none" transform="matrix(0.13333333,0,0,-0.13333333,0,377.94667)"/>
      <path id="path117" d="m 1820.94,1448.72 c -28.45,5.26 -65.79,8.03 -77.93,25.27 -18.24,25.89 4.54,63.56 64.22,60.04 54.02,-3.18 61.39,-44.87 62.13,-61.09 h 77.93 c 1.06,30.54 -11.58,62.13 -30.55,82.14 -24.19,25.27 -81.07,51.62 -151.6,41.06 -37.94,-5.25 -88.48,-27.36 -105.34,-76.88 -14.75,-46.32 0,-88.43 28.43,-110.56 35.81,-27.39 103.02,-35.59 130.59,-41.1 33.33,-6.66 58.09,-11.11 53.97,-46.57 -4.32,-37.27 -62.09,-47.88 -100.31,-35.54 -27.25,8.79 -38.97,30.55 -44.23,60.02 h -82.12 c 0,-37.35 22.22,-76.76 44.72,-94.85 33.36,-26.83 71.28,-36.27 115.09,-36.27 57.54,0 105.15,14.83 133.99,57.41 15.12,22.33 31.59,73.71 5.24,120.03 -23.15,40.04 -75.81,48.46 -124.23,56.89" style="fill:#ffffff;fill-opacity:1;fill-rule:nonzero;stroke:none" transform="matrix(0.13333333,0,0,-0.13333333,0,377.94667)"/>
      <path id="path118" d="m 1549.21,1546.65 c -33.45,38.23 -92.02,60.05 -151.62,50.57 -111.84,-17.79 -139.22,-123.76 -144.28,-157.99 -9.48,-64.08 9.48,-171.65 122.17,-213.79 52.62,-19.98 118.99,-12.62 169.53,24.23 28.43,21.09 56.86,68.45 58.97,97.96 h -93.73 c -3.14,-12.64 -10.52,-29.51 -27.37,-42.14 -37.93,-27.37 -81.09,-9.48 -100.06,4.23 -28.43,21.05 -38.96,55.79 -38.96,105.3 0,68.56 31.52,109.16 85.95,109.16 49.25,0 79.7,-42.37 77.3,-77.56 H 1374.4 v -66.35 h 229.58 c 5.6,62.46 -23.42,130.56 -54.77,166.38" style="fill:#ffffff;fill-opacity:1;fill-rule:nonzero;stroke:none" transform="matrix(0.13333333,0,0,-0.13333333,0,377.94667)"/>
      <path id="path119" d="m 2231.99,1330.01 c -7.65,-22 -28.29,-38.15 -67.39,-43.28 -51.58,-6.78 -86.81,25.24 -64.51,66.47 22.4,41.4 104.87,26.72 136.12,56.86 0,-8.42 1.36,-63.98 -4.22,-80.05 z m 94.8,-13.69 c 0,19.66 0,96.5 0,113.75 0,17.25 -2.09,58.75 -7.37,86.35 -3.8,19.88 -20.94,50.03 -53.75,66.38 -28.59,14.26 -50.59,16.82 -97.15,16.82 -69.98,0 -145.31,-24.34 -148.54,-125.31 h 84.23 c 0,36.54 25.32,58.12 64.07,58.12 37.92,0 70.09,-20.43 62.69,-53.92 -7.4,-33.5 -69.25,-34.74 -108.77,-40.01 -45.84,-6.12 -107.43,-27.38 -122.17,-91.63 -5.26,-25.27 -1.06,-71.61 37.9,-102.14 26.34,-20.01 54.33,-28.45 91.63,-28.45 47.59,0 87.59,20.72 109.83,41.08 1.04,-5.26 6.3,-25.27 10.52,-30.55 h 88.46 c -13.7,27.39 -11.58,69.85 -11.58,89.51" style="fill:#ffffff;fill-opacity:1;fill-rule:nonzero;stroke:none" transform="matrix(0.13333333,0,0,-0.13333333,0,377.94667)"/>
      <path id="path120" d="m 655.324,1375.64 c -20.879,0 -37.801,16.92 -37.801,37.8 0,20.88 16.922,37.81 37.801,37.81 20.879,0 37.805,-16.93 37.805,-37.81 0,-20.88 -16.926,-37.8 -37.805,-37.8 z m 293.285,-169.58 c -149.254,51.53 -176.863,189.59 -139.664,286.25 37.141,96.66 167.243,141.77 257.525,77.01 90.31,-64.79 80.73,-189.05 80.73,-189.05 H 915.68 v 66.35 h 134.36 c 0,0 3.75,25.87 -18.61,50.47 -29.81,32.81 -72.563,32.43 -100.36,16.45 -34.632,-19.92 -58.402,-90.98 -39.843,-153.46 18.558,-62.48 75.296,-87.31 129.873,-87.31 79.07,0 137.91,54.66 138.04,144.14 0.3,148.28 -99.69,283.47 -249.96,321.6 -177.375,44.99 -357.637,-62.33 -402.657,-239.7 -44.988,-177.38 62.313,-357.66 239.696,-402.66 126.617,-32.12 254.691,13.36 334.011,106.53 -37.55,-11.09 -82.167,-13.68 -131.621,3.38" style="fill:#ffffff;fill-opacity:1;fill-rule:nonzero;stroke:none" transform="matrix(0.13333333,0,0,-0.13333333,0,377.94667)"/>
    </g>
  </g>
</svg>